<svg width="306" height="306" viewBox="0 0 306 306" fill="none" xmlns="http://www.w3.org/2000/svg">
<g clip-path="url(#clip0_2110_33)">
<rect width="306" height="306" fill="black"/>
<path fill-rule="evenodd" clip-rule="evenodd" d="M0.674033 0.667C-0.0289671 1.369 -0.286967 161 0.414033 161C0.638033 161 19.2 150.353 41.664 137.341C64.128 124.328 83.632 113.262 85.007 112.749C87.134 111.956 90.918 113.473 110.346 122.908C122.907 129.009 133.37 134 133.596 134C133.822 134 134.007 124.806 134.007 113.569V93.139L148.257 85.937C156.095 81.976 167.457 76.155 173.507 73.002C179.557 69.848 192.497 63.135 202.262 58.083L220.016 48.897L261.762 67.058C284.722 77.046 305.313 86.685 306 86.959C306.988 87.353 306.007 77.191 306.007 43.107V0H153.674C69.89 0 1.04003 0.3 0.674033 0.667Z" fill="#36454F"/>
<path d="M246.129 125.5C260.439 116.15 279.429 103.672 288.327 97.7701L306.007 87.5V196.5V306H263.007H220.007L220.058 224.25L220.11 142.5L246.129 125.5Z" fill="#B87333"/>
<path d="M86.5071 216.717L109.969 199.358C122.873 189.811 133.561 182 133.719 182C133.877 182 134.007 209.908 134.007 244.018V306.036L110.257 305.768L86.5071 305.5V261.108V216.717Z" fill="#B87333"/>
</g>
<defs>
<clipPath id="clip0_2110_33">
<rect width="306" height="306" fill="white"/>
</clipPath>
</defs>
</svg>
